<svg width="30" height="30" viewBox="0 0 30 30" fill="none" xmlns="http://www.w3.org/2000/svg">
<path d="M18.2713 20.0388C16.0249 21.8334 13.1767 22.6998 10.3114 22.46C7.44622 22.2203 4.78156 20.8925 2.86471 18.7494C0.947869 16.6064 -0.0756496 13.8107 0.00436089 10.9366C0.0843714 8.06244 1.26184 5.32804 3.29494 3.29494C5.32804 1.26184 8.06244 0.0843714 10.9366 0.00436089C13.8107 -0.0756496 16.6064 0.947869 18.7494 2.86471C20.8925 4.78156 22.2203 7.44622 22.46 10.3114C22.6998 13.1767 21.8334 16.0249 20.0388 18.2713L29.6334 27.8635C29.8681 28.0982 30 28.4165 30 28.7485C30 29.0804 29.8681 29.3987 29.6334 29.6334C29.3987 29.8681 29.0804 30 28.7485 30C28.4165 30 28.0982 29.8681 27.8635 29.6334L18.2713 20.0388ZM19.9988 11.2491C19.9988 10.1 19.7725 8.96227 19.3327 7.90071C18.893 6.83915 18.2485 5.87459 17.436 5.0621C16.6236 4.24962 15.659 3.60512 14.5974 3.16541C13.5359 2.72569 12.3981 2.49938 11.2491 2.49938C10.1 2.49938 8.96227 2.72569 7.90071 3.16541C6.83915 3.60512 5.87459 4.24962 5.0621 5.0621C4.24962 5.87459 3.60512 6.83915 3.16541 7.90071C2.72569 8.96227 2.49938 10.1 2.49938 11.2491C2.49938 13.5696 3.42122 15.7952 5.0621 17.436C6.70299 19.0769 8.92851 19.9988 11.2491 19.9988C13.5696 19.9988 15.7952 19.0769 17.436 17.436C19.0769 15.7952 19.9988 13.5696 19.9988 11.2491Z" fill="black"/>
</svg>
