<svg width="20" height="20" viewBox="0 0 20 20" fill="none" xmlns="http://www.w3.org/2000/svg">
<path d="M5 2.5C4.33696 2.5 3.70107 2.76339 3.23223 3.23223C2.76339 3.70107 2.5 4.33696 2.5 5V15C2.5 15.663 2.76339 16.2989 3.23223 16.7678C3.70107 17.2366 4.33696 17.5 5 17.5H15C15.663 17.5 16.2989 17.2366 16.7678 16.7678C17.2366 16.2989 17.5 15.663 17.5 15V12.5C17.5 12.1685 17.6317 11.8505 17.8661 11.6161C18.1005 11.3817 18.4185 11.25 18.75 11.25C19.0815 11.25 19.3995 11.3817 19.6339 11.6161C19.8683 11.8505 20 12.1685 20 12.5V15C20 16.3261 19.4732 17.5979 18.5355 18.5355C17.5979 19.4732 16.3261 20 15 20H5C3.67392 20 2.40215 19.4732 1.46447 18.5355C0.526784 17.5979 0 16.3261 0 15V5C0 3.67392 0.526784 2.40215 1.46447 1.46447C2.40215 0.526784 3.67392 0 5 0H7.5C7.83152 0 8.14946 0.131696 8.38388 0.366117C8.6183 0.600537 8.75 0.918479 8.75 1.25C8.75 1.58152 8.6183 1.89946 8.38388 2.13388C8.14946 2.3683 7.83152 2.5 7.5 2.5H5ZM12.5 2.5C12.1685 2.5 11.8505 2.3683 11.6161 2.13388C11.3817 1.89946 11.25 1.58152 11.25 1.25C11.25 0.918479 11.3817 0.600537 11.6161 0.366117C11.8505 0.131696 12.1685 0 12.5 0H18.75C19.0815 0 19.3995 0.131696 19.6339 0.366117C19.8683 0.600537 20 0.918479 20 1.25V7.5C20 7.83152 19.8683 8.14946 19.6339 8.38388C19.3995 8.6183 19.0815 8.75 18.75 8.75C18.4185 8.75 18.1005 8.6183 17.8661 8.38388C17.6317 8.14946 17.5 7.83152 17.5 7.5V4.2675L13.385 8.385C13.2688 8.50122 13.1308 8.59341 12.979 8.65631C12.8271 8.71921 12.6644 8.75158 12.5 8.75158C12.3356 8.75158 12.1729 8.71921 12.021 8.65631C11.8692 8.59341 11.7312 8.50122 11.615 8.385C11.4988 8.26878 11.4066 8.13081 11.3437 7.97896C11.2808 7.82711 11.2484 7.66436 11.2484 7.5C11.2484 7.33564 11.2808 7.17289 11.3437 7.02104C11.4066 6.86919 11.4988 6.73122 11.615 6.615L15.7325 2.5H12.5Z" fill="#D2C3FF"/>
</svg>
